<svg t="1766939038676" class="icon" viewBox="0 0 1024 1024" version="1.1" xmlns="http://www.w3.org/2000/svg" p-id="5989" width="200" height="200"><path d="M512 102.4C286.378667 102.4 102.4 286.378667 102.4 512.341333 102.4 737.962667 286.378667 921.6 512 921.6c225.962667 0 409.6-183.637333 409.6-409.258667C921.6 286.378667 737.962667 102.4 512 102.4zM296.277333 512.341333c0 18.773333-15.018667 34.133333-34.133333 34.133334-18.773333 0-34.133333-15.36-34.133333-34.133334 0-156.672 127.317333-284.330667 283.989333-284.330666 18.773333 0 34.133333 15.36 34.133333 34.133333s-15.36 34.133333-34.133333 34.133333c-118.784 0-215.722667 96.938667-215.722667 216.064z m107.52-0.341333A108.202667 108.202667 0 0 1 512 403.797333c60.074667 0 108.544 48.469333 108.544 108.202667s-48.469333 108.544-108.544 108.544A108.544 108.544 0 0 1 403.797333 512zM512 795.989333c-18.773333 0-34.133333-15.36-34.133333-34.133333s15.36-34.133333 34.133333-34.133333c119.125333 0 216.064-96.597333 216.064-215.381334 0-19.114667 15.018667-34.133333 34.133333-34.133333 18.773333 0 34.133333 15.018667 34.133334 34.133333 0 156.330667-127.658667 283.648-284.330667 283.648z" p-id="5990" fill="#ffffff"></path><path d="M552.277333 512c0-22.186667-18.090667-39.936-40.277333-39.936-21.845333 0-39.936 17.749333-39.936 39.936 0 22.186667 18.090667 40.277333 39.936 40.277333 22.186667 0 40.277333-18.090667 40.277333-40.277333z" p-id="5991" fill="#ffffff"></path></svg>