<svg t="1765537545610" class="icon" viewBox="0 0 1024 1024" version="1.1" xmlns="http://www.w3.org/2000/svg" p-id="17973" width="200" height="200"><path d="M512 23C241.38 23 22 242.38 22 513s219.38 490 490 490 490-219.38 490-490S782.62 23 512 23z m152.33 689.71c19.44 19.44 19.44 50.97 0 70.41-19.44 19.44-50.97 19.44-70.41 0l-234.7-234.7c-19.44-19.44-19.44-50.97 0-70.41 0.07-0.07 0.15-0.14 0.23-0.22 0.07-0.07 0.14-0.15 0.22-0.23l234.7-234.7c19.44-19.44 50.97-19.44 70.41 0 19.44 19.44 19.44 50.97 0 70.41L464.84 513.22l199.49 199.49z" fill="#eaeaea" p-id="17974"></path></svg>