<svg t="1765528358801" class="icon" viewBox="0 0 1024 1024" version="1.1" xmlns="http://www.w3.org/2000/svg" p-id="12725" width="200" height="200"><path d="M73.32864 938.08128c-38.32832 0-69.58592-32.4352-69.58592-72.54016V157.8752c0-40.10496 31.25248-72.53504 69.58592-72.53504h372.11648c14.74048 0 28.30336 8.25856 35.38432 21.23264l125.01504 236.47744h323.75808c38.92736 0 88.45824 49.54112 88.45824 88.45824v434.62656c0 40.10496-31.25248 72.52992-69.59104 72.52992H73.32864v-0.58368zM132.3008 164.95616c-26.53696 0-48.35328 21.81632-48.35328 48.3584V809.5232c0 26.54208 21.81632 48.35328 48.35328 48.35328l757.1968-0.00512c26.54208 0 48.3584-21.8112 48.3584-48.34816V478.68416c0-30.66368-25.35936-56.02304-56.02304-56.02304h-300.17024c-14.73536 0-28.29824-8.25856-35.3792-21.22752l-111.45216-210.5344c-8.25856-15.9232-24.77056-25.94816-43.05408-25.94816l-259.47648 0.00512z" p-id="12726" fill="#eaeaea"></path><path d="M911.06816 406.73792h-285.96224L502.64576 164.36224h374.06208c34.98496 0 77.6192 42.624 77.6192 95.42144v103.69536c0 23.53664-19.08736 42.624-41.99424 43.25888h-1.26464z" p-id="12727" fill="#eaeaea"></path></svg>