<svg xmlns="http://www.w3.org/2000/svg" width="36.969" height="37.453" viewBox="0 0 36.969 37.453">
  <path id="路径_1" data-name="路径 1" d="M36.815,37.454H13.352A6.751,6.751,0,0,1,6.6,30.984V29.22a7.892,7.892,0,0,1,7.88-7.575H35.688a7.9,7.9,0,0,1,7.882,7.9V30.68a6.772,6.772,0,0,1-6.755,6.774ZM25.621,18.87a9.617,9.617,0,0,1-9.769-9.434A9.617,9.617,0,0,1,25.621,0a9.884,9.884,0,0,1,6.908,2.763,9.212,9.212,0,0,1,2.862,6.671,9.617,9.617,0,0,1-9.77,9.434Zm-2.1-6.679a2.345,2.345,0,0,0,4.6,0Z" transform="translate(-6.601 0)" fill="#fff"/>
</svg>
