<svg t="1765464752478" class="icon" viewBox="0 0 1024 1024" version="1.1" xmlns="http://www.w3.org/2000/svg" p-id="6925" width="200" height="200"><path d="M636.7 896.742c-20.6 0-37.3-16.7-37.3-37.3v-612.6c0-24.9-20.2-45.1-45.1-45.1-6.4 0-12.6 1.3-18.4 3.9l-229 102.5c-31.1 13.9-64.2 21-98.3 21h-39c-52.3 0-94.9 42.6-94.9 94.9v160.8c0 51.7 42.1 93.8 93.8 93.8h39.9c34.2 0 67.5 7.1 98.7 21.2l167.2 75.3c18.8 8.4 27.1 30.5 18.7 49.3-8.4 18.8-30.6 27.1-49.3 18.7l-167.2-75.3c-21.5-9.7-44.5-14.6-68.1-14.6h-40c-92.9 0-168.4-75.5-168.4-168.4v-160.8c0-93.5 76-169.5 169.5-169.5h39c23.5 0 46.3-4.9 67.8-14.5l229-102.5c15.4-6.9 31.9-10.4 48.8-10.4 66 0 119.7 53.7 119.7 119.7v612.6c0.1 20.6-16.5 37.3-37.1 37.3zM883.8 792.642c-9.5 0-19.1-3.6-26.4-10.9-14.6-14.6-14.6-38.2 0-52.7l0.6-0.6c59.1-59.4 91.7-138.3 91.7-222.1 0-84.1-32.8-163.2-92.3-222.6-14.6-14.5-14.6-38.2 0-52.7 14.5-14.6 38.2-14.6 52.7 0 151.9 151.8 151.9 398.9 0.1 550.8-0.9 0.9-1.9 1.8-2.9 2.6-6.7 5.5-15.1 8.2-23.5 8.2z m0.1-37.3h0.1-0.1z" fill="#ffffff" p-id="6926"></path></svg>